<?xml version="1.0" encoding="UTF-8"?>
<svg id="Camada_2" data-name="Camada 2" xmlns="http://www.w3.org/2000/svg" viewBox="0 0 300 65.43">
  <defs>
    <style>
      .cls-1 {
        fill: #fff;
      }

      .cls-2 {
        fill: #8cbd22;
      }
    </style>
  </defs>
  <g id="Camada_1-2" data-name="Camada 1">
    <g>
      <path class="cls-1" d="M64.91,24.96c0-5.32,8.48-5.44,8.48,0s-8.48,5.56-8.48,0ZM72.22,32.45v32.69h-6.2v-32.69h6.2Z"/>
      <path class="cls-1" d="M115.21,44.61v20.76h-6.32v-20.76c0-6.96-5.67-12.63-12.69-12.63s-12.63,5.67-12.63,12.63v20.76h-6.2V26.3h6.2v4.39c3.39-3.16,7.78-5.03,12.63-5.03,10.41,0,19.01,8.54,19.01,18.95Z"/>
      <path class="cls-1" d="M153.74,32.62v-11.7h6.2v44.45h-23.8c-8.71,0-15.91-8.01-15.91-16.84s7.19-15.91,15.91-15.91h17.6ZM153.74,59.17v-20.35h-17.6c-5.26,0-9.71,4.39-9.71,9.71s4.44,10.64,9.71,10.64h17.6Z"/>
      <path class="cls-1" d="M204.16,50.4c-2.22,8.83-10.23,14.97-19.36,14.97-10.99,0-20-8.83-20-19.83s9.01-19.89,20-19.89c8.71,0,16.38,5.85,19.36,13.98l-30.7,13.69c2.63,3.68,6.78,5.91,11.35,5.91,6.2,0,11.81-4.21,13.39-10.29l5.96,1.46ZM195.32,36.77c-2.63-3.16-6.49-4.85-10.53-4.85-7.66,0-13.8,6.02-13.8,13.63,0,.76.06,1.34.18,1.99l24.15-10.76Z"/>
      <path class="cls-1" d="M206.72,65.43l16.84-21.11-14.39-18.07h7.89l10.47,13.1,10.35-13.04h7.84l-14.27,18.01,16.84,21.11h-7.89l-12.87-16.14-12.93,16.14h-7.89Z"/>
    </g>
    <g>
      <path class="cls-2" d="M4.07,0C-.18,0-1.28,2.54,1.62,5.64l54.22,57.96c2.9,3.1,5.28,2.17,5.28-2.09v-22.61c0-4.25-2.38-10.27-5.28-13.37L37.24,5.64C34.33,2.54,28.48,0,24.23,0H4.07Z"/>
      <path class="cls-2" d="M48.12,0c-7.1,0-8.16,5.08-2.36,11.29l4.81,5.14c5.8,6.21,10.55,5.08,10.55-2.52,0-7.6-.02-13.84-.05-13.87S55.22,0,48.12,0Z"/>
    </g>
    <g>
      <path class="cls-1" d="M261.59,65.43c-1.29,0-2.25-.11-2.87-.32-.63-.22-1.19-.59-1.68-1.12-.46-.48-.78-1.01-.97-1.61s-.28-1.45-.28-2.53v-8.2h2.9v8.11c0,.81.04,1.38.11,1.7.07.33.2.59.37.79.28.33.61.56,1.01.69s.95.21,1.66.21h3.42v2.29h-3.67Z"/>
      <path class="cls-1" d="M266.74,55.3h5.48c1.38,0,2.42.32,3.13.95.7.64,1.05,1.58,1.05,2.83v6.35h-7.19c-1.01,0-1.78-.25-2.32-.76-.54-.51-.81-1.23-.81-2.16,0-1.15.31-1.98.93-2.48.62-.5,1.66-.75,3.1-.75h3.52v-.25c0-.6-.18-1.02-.53-1.27-.35-.24-.98-.37-1.89-.37h-4.47v-2.09ZM270.3,63.39h3.35v-2.09h-3.15c-.63,0-1.06.08-1.3.25-.24.17-.36.46-.36.88,0,.36.1.61.29.75.19.14.58.21,1.17.21Z"/>
      <path class="cls-1" d="M281.43,51.63v3.67h2.3c1.01,0,1.83.12,2.44.36.61.24,1.14.64,1.58,1.2.37.46.64.97.83,1.53.18.56.27,1.17.27,1.84,0,1.63-.43,2.9-1.3,3.82-.87.92-2.08,1.38-3.63,1.38h-5.15v-13.8h2.68ZM283.07,57.49h-1.63v5.77h1.84c1.02,0,1.74-.21,2.15-.64.41-.43.62-1.16.62-2.18s-.23-1.81-.68-2.27c-.45-.45-1.22-.68-2.29-.68Z"/>
      <path class="cls-1" d="M290.32,63.32h5.64c.5,0,.87-.08,1.09-.23.23-.16.34-.41.34-.75s-.12-.6-.35-.76c-.23-.16-.59-.24-1.09-.24h-2.31c-1.37,0-2.3-.21-2.78-.63-.48-.42-.72-1.16-.72-2.23s.29-1.89.87-2.4c.58-.51,1.48-.77,2.7-.77h5.74v2.11h-4.72c-.77,0-1.27.07-1.5.2s-.35.37-.35.72c0,.31.1.54.31.69.2.15.52.22.96.22h2.42c1.11,0,1.95.26,2.53.77.58.52.87,1.26.87,2.24s-.26,1.7-.77,2.29c-.52.59-1.18.88-1.99.88h-6.91v-2.11Z"/>
    </g>
  </g>
</svg>