<?xml version="1.0" encoding="UTF-8"?>
<svg id="Camada_2" data-name="Camada 2" xmlns="http://www.w3.org/2000/svg" viewBox="0 0 90.72 19.79">
  <defs>
    <style>
      .cls-1 {
        fill: #fff;
      }

      .cls-2 {
        fill: #8cbd22;
      }
    </style>
  </defs>
  <g id="Camada_1-2" data-name="Camada 1">
    <g>
      <path class="cls-1" d="M19.63,7.55c0-1.61,2.56-1.64,2.56,0s-2.56,1.68-2.56,0ZM21.84,9.81v9.89h-1.87v-9.89h1.87Z"/>
      <path class="cls-1" d="M34.84,13.49v6.28h-1.91v-6.28c0-2.1-1.72-3.82-3.84-3.82s-3.82,1.72-3.82,3.82v6.28h-1.87V7.95h1.87v1.33c1.03-.96,2.35-1.52,3.82-1.52,3.15,0,5.75,2.58,5.75,5.73Z"/>
      <path class="cls-1" d="M46.49,9.86v-3.54h1.87v13.44h-7.2c-2.64,0-4.81-2.42-4.81-5.09s2.18-4.81,4.81-4.81h5.32ZM46.49,17.89v-6.15h-5.32c-1.59,0-2.94,1.33-2.94,2.94s1.34,3.22,2.94,3.22h5.32Z"/>
      <path class="cls-1" d="M61.74,15.24c-.67,2.67-3.09,4.53-5.85,4.53-3.32,0-6.05-2.67-6.05-6s2.72-6.01,6.05-6.01c2.64,0,4.95,1.77,5.85,4.23l-9.29,4.14c.8,1.11,2.05,1.79,3.43,1.79,1.87,0,3.57-1.27,4.05-3.11l1.8.44ZM59.07,11.12c-.8-.96-1.96-1.47-3.18-1.47-2.32,0-4.17,1.82-4.17,4.12,0,.23.02.41.05.6l7.3-3.25Z"/>
      <path class="cls-1" d="M62.51,19.79l5.09-6.38-4.35-5.46h2.39l3.17,3.96,3.13-3.94h2.37l-4.32,5.45,5.09,6.38h-2.39l-3.89-4.88-3.91,4.88h-2.39Z"/>
    </g>
    <g>
      <path class="cls-2" d="M1.23,0C-.05,0-.39.77.49,1.71l16.4,17.53c.88.94,1.6.66,1.6-.63v-6.84c0-1.29-.72-3.11-1.6-4.04L11.26,1.71C10.38.77,8.61,0,7.33,0H1.23Z"/>
      <path class="cls-2" d="M14.55,0c-2.15,0-2.47,1.54-.71,3.42l1.45,1.56c1.76,1.88,3.19,1.54,3.19-.76s0-4.19-.01-4.19S16.7,0,14.55,0Z"/>
    </g>
    <g>
      <path class="cls-1" d="M79.11,19.79c-.39,0-.68-.03-.87-.1-.19-.07-.36-.18-.51-.34-.14-.14-.24-.31-.29-.49s-.09-.44-.09-.77v-2.48h.88v2.45c0,.24.01.42.03.52.02.1.06.18.11.24.08.1.19.17.31.21s.29.06.5.06h1.03v.69h-1.11Z"/>
      <path class="cls-1" d="M80.66,16.72h1.66c.42,0,.73.1.95.29.21.19.32.48.32.86v1.92h-2.17c-.3,0-.54-.08-.7-.23-.16-.15-.25-.37-.25-.65,0-.35.09-.6.28-.75.19-.15.5-.23.94-.23h1.06v-.08c0-.18-.05-.31-.16-.38-.11-.07-.3-.11-.57-.11h-1.35v-.63ZM81.74,19.17h1.01v-.63h-.95c-.19,0-.32.03-.39.08-.07.05-.11.14-.11.27,0,.11.03.18.09.23.06.04.18.06.35.06Z"/>
      <path class="cls-1" d="M85.11,15.61v1.11h.7c.31,0,.55.04.74.11.19.07.34.19.48.36.11.14.2.29.25.46.05.17.08.36.08.56,0,.49-.13.88-.39,1.15s-.63.42-1.1.42h-1.56v-4.17h.81ZM85.6,17.39h-.49v1.75h.56c.31,0,.53-.06.65-.19.12-.13.19-.35.19-.66s-.07-.55-.21-.69-.37-.21-.69-.21Z"/>
      <path class="cls-1" d="M87.79,19.15h1.71c.15,0,.26-.02.33-.07.07-.05.1-.12.1-.23s-.03-.18-.11-.23c-.07-.05-.18-.07-.33-.07h-.7c-.41,0-.69-.06-.84-.19-.15-.13-.22-.35-.22-.68s.09-.57.26-.73c.18-.16.45-.23.82-.23h1.74v.64h-1.43c-.23,0-.38.02-.45.06s-.11.11-.11.22c0,.09.03.16.09.21.06.04.16.07.29.07h.73c.33,0,.59.08.77.23.18.16.26.38.26.68s-.08.51-.23.69c-.16.18-.36.27-.6.27h-2.09v-.64Z"/>
    </g>
  </g>
</svg>