<?xml version="1.0" encoding="UTF-8"?>
<svg id="Camada_1" xmlns="http://www.w3.org/2000/svg" version="1.1" viewBox="0 0 92 20">
  <!-- Generator: Adobe Illustrator 30.2.1, SVG Export Plug-In . SVG Version: 2.1.1 Build 1)  -->
  <defs>
    <style>
      .st0 {
        fill: #fff;
      }

      .st1 {
        fill: #8cbd22;
      }
    </style>
  </defs>
  <g>
    <path class="st0" d="M20.9,7.7c0-1.6,2.6-1.6,2.6,0s-2.6,1.7-2.6,0ZM23.1,10v9.9h-1.9v-9.9h1.9Z"/>
    <path class="st0" d="M36.1,13.7v6.3h-1.9v-6.3c0-2.1-1.7-3.8-3.8-3.8s-3.8,1.7-3.8,3.8v6.3h-1.9v-11.8h1.9v1.3c1-1,2.4-1.5,3.8-1.5,3.1,0,5.7,2.6,5.7,5.7Z"/>
    <path class="st0" d="M47.8,10.1v-3.5h1.9v13.4h-7.2c-2.6,0-4.8-2.4-4.8-5.1s2.2-4.8,4.8-4.8h5.3ZM47.8,18.1v-6.2h-5.3c-1.6,0-2.9,1.3-2.9,2.9s1.3,3.2,2.9,3.2h5.3Z"/>
    <path class="st0" d="M63,15.4c-.7,2.7-3.1,4.5-5.9,4.5s-6-2.7-6-6,2.7-6,6-6,5,1.8,5.9,4.2l-9.3,4.1c.8,1.1,2.1,1.8,3.4,1.8s3.6-1.3,4.1-3.1l1.8.4ZM60.3,11.3c-.8-1-2-1.5-3.2-1.5-2.3,0-4.2,1.8-4.2,4.1s0,.4,0,.6l7.3-3.3Z"/>
    <path class="st0" d="M63.8,20l5.1-6.4-4.4-5.5h2.4l3.2,4,3.1-3.9h2.4l-4.3,5.4,5.1,6.4h-2.4l-3.9-4.9-3.9,4.9h-2.4Z"/>
  </g>
  <g>
    <path class="st1" d="M2.5.2c-1.3,0-1.6.8-.7,1.7l16.4,17.5c.9.9,1.6.7,1.6-.6v-6.8c0-1.3-.7-3.1-1.6-4L12.5,1.9c-.9-.9-2.6-1.7-3.9-1.7H2.5Z"/>
    <path class="st1" d="M15.8.2c-2.1,0-2.5,1.5-.7,3.4l1.5,1.6c1.8,1.9,3.2,1.5,3.2-.8s0-4.2,0-4.2-1.8,0-3.9,0Z"/>
  </g>
  <g>
    <path class="st0" d="M80.4,20c-.4,0-.7,0-.9,0-.2,0-.4-.2-.5-.3-.1-.1-.2-.3-.3-.5s0-.4,0-.8v-2.5h.9v2.5c0,.2,0,.4,0,.5,0,0,0,.2.1.2,0,0,.2.2.3.2s.3,0,.5,0h1v.7h-1.1Z"/>
    <path class="st0" d="M81.9,16.9h1.7c.4,0,.7,0,.9.3.2.2.3.5.3.9v1.9h-2.2c-.3,0-.5,0-.7-.2-.2-.2-.2-.4-.2-.7s0-.6.3-.7c.2-.2.5-.2.9-.2h1.1c0-.3,0-.4-.2-.5-.1,0-.3-.1-.6-.1h-1.4v-.6ZM83,19.4h1v-.6h-1c-.2,0-.3,0-.4,0,0,0-.1.1-.1.3s0,.2,0,.2c0,0,.2,0,.4,0Z"/>
    <path class="st0" d="M86.4,15.8v1.1h.7c.3,0,.6,0,.7.1.2,0,.3.2.5.4.1.1.2.3.2.5,0,.2,0,.4,0,.6,0,.5-.1.9-.4,1.2s-.6.4-1.1.4h-1.6v-4.2h.8ZM86.9,17.6h-.5v1.7h.6c.3,0,.5,0,.6-.2.1-.1.2-.3.2-.7s0-.5-.2-.7-.4-.2-.7-.2Z"/>
    <path class="st0" d="M89.1,19.3h1.7c.2,0,.3,0,.3,0,0,0,.1-.1.1-.2s0-.2-.1-.2c0,0-.2,0-.3,0h-.7c-.4,0-.7,0-.8-.2-.1-.1-.2-.4-.2-.7s0-.6.3-.7c.2-.2.4-.2.8-.2h1.7v.6h-1.4c-.2,0-.4,0-.5,0s-.1.1-.1.2,0,.2,0,.2c0,0,.2,0,.3,0h.7c.3,0,.6,0,.8.2.2.2.3.4.3.7s0,.5-.2.7c-.2.2-.4.3-.6.3h-2.1v-.6Z"/>
  </g>
</svg>