<?xml version="1.0" encoding="UTF-8"?>
<svg id="Camada_2" data-name="Camada 2" xmlns="http://www.w3.org/2000/svg" xmlns:xlink="http://www.w3.org/1999/xlink" viewBox="0 0 691.49 247.27">
  <defs>
    <style>
      .cls-1 {
        fill: #fff;
      }

      .cls-2 {
        fill: #1d9980;
      }

      .cls-3 {
        fill: url(#Gradiente_sem_nome_184);
      }
    </style>
    <linearGradient id="Gradiente_sem_nome_184" data-name="Gradiente sem nome 184" x1="0" y1="95.39" x2="178.22" y2="95.39" gradientUnits="userSpaceOnUse">
      <stop offset="0" stop-color="#8dbe22"/>
      <stop offset="1" stop-color="#389e4f"/>
    </linearGradient>
  </defs>
  <g id="Camada_1-2" data-name="Camada 1">
    <g>
      <path class="cls-1" d="M190.17,84.24c0-14.55,23.18-14.87,23.18,0s-23.18,15.19-23.18,0ZM210.15,104.71v89.37h-16.95v-89.37h16.95Z"/>
      <path class="cls-1" d="M327.66,137.96v56.76h-17.27v-56.76c0-19.02-15.51-34.53-34.69-34.53s-34.53,15.51-34.53,34.53v56.76h-16.95v-106.8h16.95v11.99c9.27-8.63,21.26-13.75,34.53-13.75,28.46,0,51.96,23.34,51.96,51.8Z"/>
      <path class="cls-1" d="M433,105.19v-31.98h16.95v121.5h-65.07c-23.82,0-43.49-21.9-43.49-46.04s19.66-43.49,43.49-43.49h48.12ZM433,177.77v-55.64h-48.12c-14.39,0-26.54,11.99-26.54,26.54s12.15,29.1,26.54,29.1h48.12Z"/>
      <path class="cls-1" d="M570.8,153.79c-6.07,24.14-27.98,40.93-52.92,40.93-30.05,0-54.68-24.14-54.68-54.2s24.62-54.36,54.68-54.36c23.82,0,44.76,15.99,52.92,38.21l-83.93,37.41c7.2,10.07,18.55,16.15,31.02,16.15,16.95,0,32.3-11.51,36.61-28.14l16.31,4ZM546.66,116.54c-7.2-8.63-17.75-13.27-28.78-13.27-20.94,0-37.73,16.47-37.73,37.25,0,2.08.16,3.68.48,5.43l66.03-29.42Z"/>
      <path class="cls-1" d="M577.82,194.88l46.04-57.72-39.33-49.4h21.58l28.62,35.81,28.3-35.65h21.42l-39.01,49.24,46.04,57.72h-21.58l-35.17-44.13-35.33,44.13h-21.58Z"/>
    </g>
    <g>
      <path class="cls-3" d="M11.87,0C-.52,0-3.74,7.41,4.73,16.46l158.1,168.98c8.47,9.05,15.4,6.32,15.4-6.08v-65.93c0-12.39-6.93-29.94-15.4-38.99l-54.25-57.98C100.11,7.41,83.04,0,70.65,0H11.87Z"/>
      <path class="cls-2" d="M140.31,0c-20.71,0-23.8,14.82-6.87,32.93l14.01,15c16.93,18.11,30.77,14.8,30.77-7.36s-.06-40.35-.13-40.43S161.01,0,140.31,0Z"/>
    </g>
    <g>
      <path class="cls-1" d="M607.17,247.27c-2.83,0-4.93-.24-6.31-.71-1.37-.47-2.6-1.29-3.69-2.46-1-1.04-1.71-2.23-2.12-3.54s-.62-3.17-.62-5.56v-18.01h6.37v17.8c0,1.77.08,3.02.24,3.74.16.72.43,1.3.81,1.74.6.71,1.35,1.22,2.23,1.52s2.1.45,3.65.45h7.5v5.03h-8.06Z"/>
      <path class="cls-1" d="M618.48,225.03h12.03c3.04,0,5.32.7,6.86,2.09,1.54,1.39,2.31,3.47,2.31,6.21v13.93h-15.78c-2.21,0-3.91-.56-5.1-1.67-1.19-1.11-1.78-2.69-1.78-4.74,0-2.53.68-4.34,2.05-5.44,1.37-1.1,3.64-1.65,6.81-1.65h7.73v-.56c0-1.32-.39-2.25-1.16-2.78-.78-.54-2.16-.8-4.15-.8h-9.81v-4.6ZM626.29,242.8h7.36v-4.6h-6.92c-1.37,0-2.32.19-2.84.56-.52.37-.78,1.02-.78,1.94,0,.78.21,1.33.63,1.64.42.31,1.27.46,2.57.46Z"/>
      <path class="cls-1" d="M650.73,216.98v8.06h5.05c2.23,0,4.01.27,5.36.79,1.35.53,2.5,1.41,3.46,2.63.81,1.02,1.42,2.14,1.81,3.37.4,1.23.6,2.58.6,4.05,0,3.57-.95,6.36-2.86,8.38-1.91,2.01-4.57,3.02-7.97,3.02h-11.31v-30.29h5.87ZM654.32,229.83h-3.59v12.67h4.04c2.24,0,3.81-.47,4.72-1.41.91-.94,1.36-2.54,1.36-4.79s-.5-3.98-1.49-4.98-2.68-1.49-5.04-1.49Z"/>
      <path class="cls-1" d="M670.25,242.63h12.38c1.1,0,1.9-.17,2.4-.52.5-.34.75-.89.75-1.65s-.25-1.31-.76-1.66c-.51-.35-1.31-.53-2.39-.53h-5.07c-3.01,0-5.04-.46-6.1-1.38-1.06-.92-1.59-2.56-1.59-4.9s.64-4.15,1.92-5.28c1.28-1.13,3.26-1.69,5.93-1.69h12.61v4.64h-10.36c-1.69,0-2.79.15-3.3.44s-.76.82-.76,1.58c0,.69.22,1.19.67,1.51.45.32,1.15.48,2.11.48h5.32c2.43,0,4.29.57,5.56,1.7,1.28,1.13,1.92,2.77,1.92,4.92s-.57,3.74-1.7,5.03c-1.13,1.29-2.59,1.94-4.38,1.94h-15.17v-4.64Z"/>
    </g>
  </g>
</svg>