<?xml version="1.0" encoding="UTF-8"?>
<svg id="Camada_2" data-name="Camada 2" xmlns="http://www.w3.org/2000/svg" viewBox="0 0 329.95 185.6">
  <defs>
    <style>
      .cls-1 {
        opacity: .2;
      }

      .cls-1, .cls-2 {
        fill: #fff;
      }

      .cls-3 {
        fill: #212121;
      }

      .cls-4 {
        fill: #ff1017;
      }

      .cls-5 {
        fill: #b3b3b3;
      }
    </style>
  </defs>
  <g id="Layer_1" data-name="Layer 1">
    <g>
      <rect class="cls-3" width="329.95" height="185.6"/>
      <g>
        <circle class="cls-1" cx="164.98" cy="85.81" r="24.8" transform="translate(-12.35 141.79) rotate(-45)"/>
        <path class="cls-2" d="M178.05,85.81l-20.62-13.55c.03,20.43,0,10.4,0,27.1l20.62-13.55Z"/>
      </g>
      <g>
        <rect class="cls-2" y="160.87" width="329.95" height="24.73"/>
        <path d="M14.59,171.84l2.28,1.5-2.28,1.5c0-.4,0-.65,0-.87,0-.47,0-.79,0-2.13M13.59,169.99c0,5.06,0,2.58,0,6.71l5.11-3.35-5.11-3.35h0Z"/>
        <g>
          <path d="M56.69,171.84l2.28,1.5-2.28,1.5c0-.4,0-.65,0-.87,0-.47,0-.79,0-2.13M55.69,169.99c0,5.06,0,2.58,0,6.71l5.11-3.35-5.11-3.35h0Z"/>
          <rect x="60.7" y="169.99" width=".96" height="6.71"/>
        </g>
        <g>
          <path d="M39.46,171.84c0,.4,0,.65,0,.87,0,.48,0,.79,0,2.13l-2.28-1.5,2.28-1.5M40.46,169.99l-5.11,3.35,5.11,3.35c0-5.06,0-2.58,0-6.71h0Z"/>
          <rect x="34.48" y="169.99" width=".96" height="6.71" transform="translate(69.93 346.68) rotate(180)"/>
        </g>
        <g>
          <path d="M285.82,171.96v.76c0,.46,0,.78,0,2.02l-.78-.57-1.12-.81,1.12-.82.78-.57M286.82,169.99l-2.37,1.73h0s-1.71,0-1.71,0v3.27h1.71s2.37,1.72,2.37,1.72c0-5.06,0-2.58,0-6.71h0Z"/>
          <g>
            <path d="M288.9,176.62c-.16,0-.3-.09-.37-.24-.09-.2,0-.44.21-.52.32-.14.61-.33.86-.58.25-.25.45-.54.58-.86.14-.33.21-.69.21-1.06s-.07-.72-.21-1.06c-.14-.32-.33-.61-.58-.86-.25-.25-.54-.45-.86-.58-.2-.09-.3-.32-.21-.52.09-.2.32-.3.52-.21.42.18.8.43,1.12.75.32.32.58.7.75,1.12.18.43.28.9.28,1.37s-.09.94-.28,1.37c-.18.42-.43.8-.75,1.12s-.7.58-1.12.75c-.05.02-.1.03-.16.03Z"/>
            <path d="M288.15,175.01c-.15,0-.28-.09-.35-.23-.08-.19,0-.41.2-.49.12-.05.23-.13.33-.22.09-.09.17-.2.22-.33.05-.13.08-.26.08-.4s-.03-.27-.08-.4c-.05-.12-.13-.23-.22-.33-.1-.1-.21-.17-.33-.22-.19-.08-.28-.3-.2-.49.08-.19.3-.28.49-.2.21.09.4.22.56.38.16.16.29.35.38.56.09.22.14.45.14.69s-.05.47-.14.69c-.09.21-.22.4-.38.56-.16.16-.35.29-.56.38-.05.02-.1.03-.15.03Z"/>
          </g>
        </g>
        <path d="M312.3,172.66c.35-.07.7-.11,1.07-.15v1.66c-.38-.03-.72-.08-1.07-.15l-.52,1.27c.3.2.57.41.86.66l-1.18,1.18c-.24-.29-.46-.56-.66-.86l-1.27.52c.07.35.11.7.15,1.07h-1.66c.03-.38.08-.72.15-1.07l-1.27-.52c-.2.3-.41.57-.66.86l-1.18-1.18c.29-.24.56-.46.86-.66l-.52-1.27c-.35.07-.7.11-1.07.15v-1.66c.38.03.72.08,1.07.15l.52-1.27c-.3-.2-.57-.41-.86-.66l1.18-1.18c.24.29.46.56.66.86l1.27-.52c-.07-.35-.11-.7-.15-1.07h1.66c-.03.38-.08.72-.15,1.07l1.27.52c.2-.3.41-.57.66-.86l1.18,1.18c-.29.24-.56.46-.86.66l.52,1.27ZM308.86,171.33c-1.11,0-2.01.9-2.01,2.01s.9,2.01,2.01,2.01,2.01-.9,2.01-2.01-.9-2.01-2.01-2.01Z"/>
        <rect class="cls-5" x="70.41" y="173.17" width="197.79" height=".68"/>
        <rect class="cls-4" x="70.41" y="173.17" width="64.03" height=".68"/>
        <path class="cls-4" d="M136.28,173.51c0,.75-.6,1.35-1.35,1.35s-1.35-.6-1.35-1.35.6-1.35,1.35-1.35,1.35.6,1.35,1.35Z"/>
      </g>
    </g>
  </g>
</svg>